<svg width="18" height="18" viewBox="0 0 18 18" fill="none" xmlns="http://www.w3.org/2000/svg">
<path fill-rule="evenodd" clip-rule="evenodd" d="M0 9C-1.76116e-08 7.8181 0.232792 6.64778 0.685084 5.55585C1.13738 4.46392 1.80031 3.47177 2.63604 2.63604C3.47177 1.80031 4.46392 1.13738 5.55585 0.685084C6.64778 0.232792 7.8181 0 9 0C10.1819 0 11.3522 0.232792 12.4442 0.685084C13.5361 1.13738 14.5282 1.80031 15.364 2.63604C16.1997 3.47177 16.8626 4.46392 17.3149 5.55585C17.7672 6.64778 18 7.8181 18 9C18 11.3869 17.0518 13.6761 15.364 15.364C13.6761 17.0518 11.3869 18 9 18C6.61305 18 4.32387 17.0518 2.63604 15.364C0.948211 13.6761 3.55683e-08 11.3869 0 9ZM2.07 10C2.31081 11.6662 3.14388 13.1899 4.4166 14.2919C5.68932 15.3939 7.31648 16.0005 9 16.0005C10.6835 16.0005 12.3107 15.3939 13.5834 14.2919C14.8561 13.1899 15.6892 11.6662 15.93 10H11.83C11.6234 10.5855 11.2403 11.0926 10.7334 11.4512C10.2265 11.8099 9.62091 12.0025 9 12.0025C8.37909 12.0025 7.77346 11.8099 7.2666 11.4512C6.75974 11.0926 6.3766 10.5855 6.17 10H2.07ZM15.93 8C15.6907 6.33261 14.8583 4.80739 13.5854 3.70413C12.3125 2.60087 10.6845 1.99354 9 1.99354C7.31553 1.99354 5.68753 2.60087 4.41463 3.70413C3.14173 4.80739 2.30929 6.33261 2.07 8H6.17C6.3766 7.41447 6.75974 6.90743 7.2666 6.54879C7.77346 6.19014 8.37909 5.99755 9 5.99755C9.62091 5.99755 10.2265 6.19014 10.7334 6.54879C11.2403 6.90743 11.6234 7.41447 11.83 8H15.93ZM9 10C9.26522 10 9.51957 9.89464 9.70711 9.70711C9.89464 9.51957 10 9.26522 10 9C10 8.73478 9.89464 8.48043 9.70711 8.29289C9.51957 8.10536 9.26522 8 9 8C8.73478 8 8.48043 8.10536 8.29289 8.29289C8.10536 8.48043 8 8.73478 8 9C8 9.26522 8.10536 9.51957 8.29289 9.70711C8.48043 9.89464 8.73478 10 9 10Z" fill="black"/>
</svg>
